<?xml version="1.0" encoding="UTF-8" standalone="no"?>
<!-- Created with Inkscape (http://www.inkscape.org/) -->

<svg
   xmlns:dc="http://purl.org/dc/elements/1.1/"
   xmlns:cc="http://creativecommons.org/ns#"
   xmlns:rdf="http://www.w3.org/1999/02/22-rdf-syntax-ns#"
   xmlns:svg="http://www.w3.org/2000/svg"
   xmlns="http://www.w3.org/2000/svg"
   xmlns:sodipodi="http://sodipodi.sourceforge.net/DTD/sodipodi-0.dtd"
   xmlns:inkscape="http://www.inkscape.org/namespaces/inkscape"
   version="1.1"
   width="35"
   height="33.93"
   id="svg2"
   xml:space="preserve"
   inkscape:version="0.48.2 r9819"
   sodipodi:docname="White right arrow.svg"><sodipodi:namedview
     pagecolor="#ffffff"
     bordercolor="#666666"
     borderopacity="1"
     objecttolerance="10"
     gridtolerance="10"
     guidetolerance="10"
     inkscape:pageopacity="0"
     inkscape:pageshadow="2"
     inkscape:window-width="1920"
     inkscape:window-height="1018"
     id="namedview18"
     showgrid="false"
     fit-margin-top="0"
     fit-margin-left="0"
     fit-margin-right="0"
     fit-margin-bottom="0"
     inkscape:zoom="3.1541248"
     inkscape:cx="249.73775"
     inkscape:cy="80.36478"
     inkscape:window-x="-8"
     inkscape:window-y="-8"
     inkscape:window-maximized="1"
     inkscape:current-layer="svg2" /><metadata
     id="metadata8"><rdf:RDF><cc:Work
         rdf:about=""><dc:format>image/svg+xml</dc:format><dc:type
           rdf:resource="http://purl.org/dc/dcmitype/StillImage" /><dc:title></dc:title></cc:Work></rdf:RDF></metadata><defs
     id="defs6"><clipPath
       id="clipPath18"><path
         d="M 0,792 1224,792 1224,0 0,0 0,792 z"
         id="path20"
         inkscape:connector-curvature="0" /></clipPath><clipPath
       id="clipPath26"><path
         d="m 248.406,36 727.909,0 0,700.912 -727.909,0 0,-700.912 z"
         id="path28"
         inkscape:connector-curvature="0" /></clipPath><clipPath
       id="clipPath50"><path
         d="m 0,0 1224,0 0,792 L 0,792 0,0 z"
         id="path52"
         inkscape:connector-curvature="0" /></clipPath><clipPath
       id="clipPath60"><path
         d="M 0,792 1224,792 1224,0 0,0 0,792 z"
         id="path62"
         inkscape:connector-curvature="0" /></clipPath><clipPath
       id="clipPath78"><path
         d="m 0,0 1224,0 0,792 L 0,792 0,0 z"
         id="path80"
         inkscape:connector-curvature="0" /></clipPath></defs><g
     transform="matrix(-1.25,0,0,-1.25,550.26225,356.22263)"
     id="g10"><g
       transform="translate(424.6068,284.5781)"
       id="g208"
       style="fill:#214f8f;fill-opacity:1"><path
         d="M 0,0 15.203,-13.205 0,-26.344 l 0,6.296 -11.997,0 0,13.645 L 0,-6.403 0,0 z"
         id="path210"
         style="fill:#214f8f;fill-opacity:1;stroke:#214f8f;stroke-width:0.80000001;stroke-linecap:butt;stroke-linejoin:miter;stroke-miterlimit:4;stroke-opacity:1;stroke-dasharray:none"
         inkscape:connector-curvature="0" /></g></g><path
     style="fill:#ffffff"
     d="m 19.875668,29.932706 0,-4.144598 7.450561,0 7.450561,0 0,-8.877264 0,-8.8772649 -7.441359,0 -7.441359,0 -0.08846,-4.075737 -0.08846,-4.07573662 -9.669877,8.40469152 c -5.318433,4.62258 -9.71194,8.508896 -9.763349,8.636258 -0.07412,0.183623 15.883895,14.205609 18.865127,16.576409 l 0.726622,0.57784 0,-4.144598 z"
     id="path3077"
     inkscape:connector-curvature="0" /></svg>