<svg xmlns="http://www.w3.org/2000/svg" xmlns:xlink="http://www.w3.org/1999/xlink" version="1.1" class="marks" width="1146" height="596" viewBox="0 0 573 298"><rect width="573" height="298" fill="white"/><g fill="none" stroke-miterlimit="10" transform="translate(43,57)"><g class="mark-group role-frame root" role="graphics-object" aria-roledescription="group mark container"><g transform="translate(0,0)"><path class="background" aria-hidden="true" d="M0,0h0v0h0Z"/><g><g class="mark-group role-column-title column-title" role="graphics-object" aria-roledescription="group mark container"><g transform="translate(214,-31)"><path class="background" aria-hidden="true" d="M0,0h0v0h0Z"/><g><g class="mark-group role-title"><g transform="translate(0,-21)"><path class="background" aria-hidden="true" d="M0,0h0v0h0Z" pointer-events="none"/><g><g class="mark-text role-title-text" role="graphics-symbol" aria-roledescription="title" aria-label="Title text 'Ising model simulation'" pointer-events="none"><text text-anchor="middle" transform="translate(0,9)" font-family="sans-serif" font-size="11px" font-weight="bold" fill="#000" opacity="1">Ising model simulation</text></g></g><path class="foreground" aria-hidden="true" d="" pointer-events="none" display="none"/></g></g></g><path class="foreground" aria-hidden="true" d="" display="none"/></g></g><g class="mark-group role-row-header row_header" role="graphics-object" aria-roledescription="group mark container"><g transform="translate(-1,0)"><path class="background" aria-hidden="true" d="M0,0h0v200h0Z"/><g><g class="mark-group role-axis" role="graphics-symbol" aria-roledescription="axis" aria-label="Y-axis titled 'Error Rate' for a linear scale with values from 0.0 to 0.6"><g transform="translate(0.5,0.5)"><path class="background" aria-hidden="true" d="M0,0h0v0h0Z" pointer-events="none"/><g><g class="mark-rule role-axis-tick" pointer-events="none"><line transform="translate(0,200)" x2="-5" y2="0" stroke="#888" stroke-width="1" opacity="1"/><line transform="translate(0,164)" x2="-5" y2="0" stroke="#888" stroke-width="1" opacity="1"/><line transform="translate(0,127)" x2="-5" y2="0" stroke="#888" stroke-width="1" opacity="1"/><line transform="translate(0,91)" x2="-5" y2="0" stroke="#888" stroke-width="1" opacity="1"/><line transform="translate(0,55)" x2="-5" y2="0" stroke="#888" stroke-width="1" opacity="1"/><line transform="translate(0,18)" x2="-5" y2="0" stroke="#888" stroke-width="1" opacity="1"/></g><g class="mark-text role-axis-label" pointer-events="none"><text text-anchor="end" transform="translate(-7,203)" font-family="sans-serif" font-size="10px" fill="#000" opacity="1">0.0</text><text text-anchor="end" transform="translate(-7,166.63636363636363)" font-family="sans-serif" font-size="10px" fill="#000" opacity="1">0.1</text><text text-anchor="end" transform="translate(-7,130.27272727272725)" font-family="sans-serif" font-size="10px" fill="#000" opacity="1">0.2</text><text text-anchor="end" transform="translate(-7,93.90909090909092)" font-family="sans-serif" font-size="10px" fill="#000" opacity="1">0.3</text><text text-anchor="end" transform="translate(-7,57.54545454545454)" font-family="sans-serif" font-size="10px" fill="#000" opacity="1">0.4</text><text text-anchor="end" transform="translate(-7,21.181818181818187)" font-family="sans-serif" font-size="10px" fill="#000" opacity="1">0.5</text></g><g class="mark-rule role-axis-domain" pointer-events="none"><line transform="translate(0,200)" x2="0" y2="-200" stroke="#888" stroke-width="1" opacity="1"/></g><g class="mark-text role-axis-title" pointer-events="none"><text text-anchor="middle" transform="translate(-25.1357421875,100) rotate(-90) translate(0,-2)" font-family="sans-serif" font-size="11px" font-weight="bold" fill="#000" opacity="1">Error Rate</text></g></g><path class="foreground" aria-hidden="true" d="" pointer-events="none" display="none"/></g></g></g><path class="foreground" aria-hidden="true" d="" display="none"/></g></g><g class="mark-group role-column-header column_header" role="graphics-object" aria-roledescription="group mark container"><g transform="translate(0,-1)"><path class="background" aria-hidden="true" d="M0,0h200v0h-200Z"/><g><g class="mark-group role-title"><g transform="translate(100,-20)"><path class="background" aria-hidden="true" d="M0,0h0v0h0Z" pointer-events="none"/><g><g class="mark-text role-title-text" role="graphics-symbol" aria-roledescription="title" aria-label="Title text 'chain'" pointer-events="none"><text text-anchor="middle" transform="translate(0,8)" font-family="sans-serif" font-size="10px" fill="#000" opacity="1">chain</text></g></g><path class="foreground" aria-hidden="true" d="" pointer-events="none" display="none"/></g></g></g><path class="foreground" aria-hidden="true" d="" display="none"/></g><g transform="translate(225,-1)"><path class="background" aria-hidden="true" d="M0,0h200v0h-200Z"/><g><g class="mark-group role-title"><g transform="translate(100,-20)"><path class="background" aria-hidden="true" d="M0,0h0v0h0Z" pointer-events="none"/><g><g class="mark-text role-title-text" role="graphics-symbol" aria-roledescription="title" aria-label="Title text 'cycle'" pointer-events="none"><text text-anchor="middle" transform="translate(0,8)" font-family="sans-serif" font-size="10px" fill="#000" opacity="1">cycle</text></g></g><path class="foreground" aria-hidden="true" d="" pointer-events="none" display="none"/></g></g></g><path class="foreground" aria-hidden="true" d="" display="none"/></g></g><g class="mark-group role-column-footer column_footer" role="graphics-object" aria-roledescription="group mark container"><g transform="translate(0,204)"><path class="background" aria-hidden="true" d="M0,0h200v0h-200Z"/><g><g class="mark-group role-axis" role="graphics-symbol" aria-roledescription="axis" aria-label="X-axis titled 'Time' for a linear scale with values from 0.0 to 1.0"><g transform="translate(0.5,0.5)"><path class="background" aria-hidden="true" d="M0,0h0v0h0Z" pointer-events="none"/><g><g class="mark-rule role-axis-tick" pointer-events="none"><line transform="translate(0,0)" x2="0" y2="5" stroke="#888" stroke-width="1" opacity="1"/><line transform="translate(40,0)" x2="0" y2="5" stroke="#888" stroke-width="1" opacity="1"/><line transform="translate(80,0)" x2="0" y2="5" stroke="#888" stroke-width="1" opacity="1"/><line transform="translate(120,0)" x2="0" y2="5" stroke="#888" stroke-width="1" opacity="1"/><line transform="translate(160,0)" x2="0" y2="5" stroke="#888" stroke-width="1" opacity="1"/><line transform="translate(200,0)" x2="0" y2="5" stroke="#888" stroke-width="1" opacity="1"/></g><g class="mark-text role-axis-label" pointer-events="none"><text text-anchor="start" transform="translate(0,15)" font-family="sans-serif" font-size="10px" fill="#000" opacity="1">0.0</text><text text-anchor="middle" transform="translate(40,15)" font-family="sans-serif" font-size="10px" fill="#000" opacity="1">0.2</text><text text-anchor="middle" transform="translate(80,15)" font-family="sans-serif" font-size="10px" fill="#000" opacity="1">0.4</text><text text-anchor="middle" transform="translate(120,15)" font-family="sans-serif" font-size="10px" fill="#000" opacity="1">0.6</text><text text-anchor="middle" transform="translate(160,15)" font-family="sans-serif" font-size="10px" fill="#000" opacity="1">0.8</text><text text-anchor="end" transform="translate(200,15)" font-family="sans-serif" font-size="10px" fill="#000" opacity="1">1.0</text></g><g class="mark-rule role-axis-domain" pointer-events="none"><line transform="translate(0,0)" x2="200" y2="0" stroke="#888" stroke-width="1" opacity="1"/></g><g class="mark-text role-axis-title" pointer-events="none"><text text-anchor="middle" transform="translate(100,30)" font-family="sans-serif" font-size="11px" font-weight="bold" fill="#000" opacity="1">Time</text></g></g><path class="foreground" aria-hidden="true" d="" pointer-events="none" display="none"/></g></g></g><path class="foreground" aria-hidden="true" d="" display="none"/></g><g transform="translate(225,204)"><path class="background" aria-hidden="true" d="M0,0h200v0h-200Z"/><g><g class="mark-group role-axis" role="graphics-symbol" aria-roledescription="axis" aria-label="X-axis titled 'Time' for a linear scale with values from 0.0 to 1.0"><g transform="translate(0.5,0.5)"><path class="background" aria-hidden="true" d="M0,0h0v0h0Z" pointer-events="none"/><g><g class="mark-rule role-axis-tick" pointer-events="none"><line transform="translate(0,0)" x2="0" y2="5" stroke="#888" stroke-width="1" opacity="1"/><line transform="translate(40,0)" x2="0" y2="5" stroke="#888" stroke-width="1" opacity="1"/><line transform="translate(80,0)" x2="0" y2="5" stroke="#888" stroke-width="1" opacity="1"/><line transform="translate(120,0)" x2="0" y2="5" stroke="#888" stroke-width="1" opacity="1"/><line transform="translate(160,0)" x2="0" y2="5" stroke="#888" stroke-width="1" opacity="1"/><line transform="translate(200,0)" x2="0" y2="5" stroke="#888" stroke-width="1" opacity="1"/></g><g class="mark-text role-axis-label" pointer-events="none"><text text-anchor="start" transform="translate(0,15)" font-family="sans-serif" font-size="10px" fill="#000" opacity="1">0.0</text><text text-anchor="middle" transform="translate(40,15)" font-family="sans-serif" font-size="10px" fill="#000" opacity="1">0.2</text><text text-anchor="middle" transform="translate(80,15)" font-family="sans-serif" font-size="10px" fill="#000" opacity="1">0.4</text><text text-anchor="middle" transform="translate(120,15)" font-family="sans-serif" font-size="10px" fill="#000" opacity="1">0.6</text><text text-anchor="middle" transform="translate(160,15)" font-family="sans-serif" font-size="10px" fill="#000" opacity="1">0.8</text><text text-anchor="end" transform="translate(200,15)" font-family="sans-serif" font-size="10px" fill="#000" opacity="1">1.0</text></g><g class="mark-rule role-axis-domain" pointer-events="none"><line transform="translate(0,0)" x2="200" y2="0" stroke="#888" stroke-width="1" opacity="1"/></g><g class="mark-text role-axis-title" pointer-events="none"><text text-anchor="middle" transform="translate(100,30)" font-family="sans-serif" font-size="11px" font-weight="bold" fill="#000" opacity="1">Time</text></g></g><path class="foreground" aria-hidden="true" d="" pointer-events="none" display="none"/></g></g></g><path class="foreground" aria-hidden="true" d="" display="none"/></g></g><g class="mark-group role-scope cell" role="graphics-object" aria-roledescription="group mark container"><g transform="translate(0,0)"><path class="background" aria-hidden="true" d="M0.5,0.5h200v200h-200Z" stroke="#ddd"/><g><g class="mark-group role-axis" aria-hidden="true"><g transform="translate(0.5,200.5)"><path class="background" aria-hidden="true" d="M0,0h0v0h0Z" pointer-events="none"/><g><g class="mark-rule role-axis-grid" pointer-events="none"><line transform="translate(0,-200)" x2="0" y2="200" stroke="#ddd" stroke-width="1" opacity="1"/><line transform="translate(40,-200)" x2="0" y2="200" stroke="#ddd" stroke-width="1" opacity="1"/><line transform="translate(80,-200)" x2="0" y2="200" stroke="#ddd" stroke-width="1" opacity="1"/><line transform="translate(120,-200)" x2="0" y2="200" stroke="#ddd" stroke-width="1" opacity="1"/><line transform="translate(160,-200)" x2="0" y2="200" stroke="#ddd" stroke-width="1" opacity="1"/><line transform="translate(200,-200)" x2="0" y2="200" stroke="#ddd" stroke-width="1" opacity="1"/></g></g><path class="foreground" aria-hidden="true" d="" pointer-events="none" display="none"/></g></g><g class="mark-group role-axis" aria-hidden="true"><g transform="translate(0.5,0.5)"><path class="background" aria-hidden="true" d="M0,0h0v0h0Z" pointer-events="none"/><g><g class="mark-rule role-axis-grid" pointer-events="none"><line transform="translate(0,200)" x2="200" y2="0" stroke="#ddd" stroke-width="1" opacity="1"/><line transform="translate(0,164)" x2="200" y2="0" stroke="#ddd" stroke-width="1" opacity="1"/><line transform="translate(0,127)" x2="200" y2="0" stroke="#ddd" stroke-width="1" opacity="1"/><line transform="translate(0,91)" x2="200" y2="0" stroke="#ddd" stroke-width="1" opacity="1"/><line transform="translate(0,55)" x2="200" y2="0" stroke="#ddd" stroke-width="1" opacity="1"/><line transform="translate(0,18)" x2="200" y2="0" stroke="#ddd" stroke-width="1" opacity="1"/></g></g><path class="foreground" aria-hidden="true" d="" pointer-events="none" display="none"/></g></g><g class="mark-group role-scope child_layer_0_pathgroup" role="graphics-object" aria-roledescription="group mark container"><g transform="translate(0,0)"><path class="background" aria-hidden="true" d="M0,0h200v200h-200Z"/><g><g class="mark-line role-mark child_layer_0_marks" role="graphics-object" aria-roledescription="line mark container"><path aria-label="Time: 0.2; Error Rate: 0.000493596784359; Device: IonQ (ideal); simulated: true" role="graphics-symbol" aria-roledescription="line mark" d="M40,199.821L80,197.696L120,190.764L160,174.875L200,153.802" stroke="#fead6b" stroke-width="2" stroke-dasharray="4,2"/></g></g><path class="foreground" aria-hidden="true" d="" display="none"/></g><g transform="translate(0,0)"><path class="background" aria-hidden="true" d="M0,0h200v200h-200Z"/><g><g class="mark-line role-mark child_layer_0_marks" role="graphics-object" aria-roledescription="line mark container"><path aria-label="Time: 0.2; Error Rate: 0.0459606953459; Device: IonQ; simulated: false" role="graphics-symbol" aria-roledescription="line mark" d="M40,183.287L80,177.636L120,170.775L160,160.303L200,141.206" stroke="#e6550d" stroke-width="2" stroke-dasharray="1,0"/></g></g><path class="foreground" aria-hidden="true" d="" display="none"/></g><g transform="translate(0,0)"><path class="background" aria-hidden="true" d="M0,0h200v200h-200Z"/><g><g class="mark-line role-mark child_layer_0_marks" role="graphics-object" aria-roledescription="line mark container"><path aria-label="Time: 0.2; Error Rate: 0.109026728893; Device: IonQ (Qiskit); simulated: false" role="graphics-symbol" aria-roledescription="line mark" d="M40,160.354L80,167.348L120,154.451L160,164.931L200,163.35" stroke-width="2" stroke-dasharray="1,0"/></g></g><path class="foreground" aria-hidden="true" d="" display="none"/></g><g transform="translate(0,0)"><path class="background" aria-hidden="true" d="M0,0h200v200h-200Z"/><g><g class="mark-line role-mark child_layer_0_marks" role="graphics-object" aria-roledescription="line mark container"><path aria-label="Time: 0.2; Error Rate: 0.0101954456803; Device: IBM (ideal); simulated: true" role="graphics-symbol" aria-roledescription="line mark" d="M40,196.293L80,188.615L120,179.345L160,169.911L200,151.624" stroke="#9ecae1" stroke-width="2" stroke-dasharray="4,2"/></g></g><path class="foreground" aria-hidden="true" d="" display="none"/></g><g transform="translate(0,0)"><path class="background" aria-hidden="true" d="M0,0h200v200h-200Z"/><g><g class="mark-line role-mark child_layer_0_marks" role="graphics-object" aria-roledescription="line mark container"><path aria-label="Time: 0.2; Error Rate: 0.247697498719; Device: IBM; simulated: false" role="graphics-symbol" aria-roledescription="line mark" d="M40,109.928L80,132.966L120,143.557L160,128.827L200,95.208" stroke="#3182bd" stroke-width="2" stroke-dasharray="1,0"/></g></g><path class="foreground" aria-hidden="true" d="" display="none"/></g><g transform="translate(0,0)"><path class="background" aria-hidden="true" d="M0,0h200v200h-200Z"/><g><g class="mark-line role-mark child_layer_0_marks" role="graphics-object" aria-roledescription="line mark container"><path aria-label="Time: 0.2; Error Rate: 0.5080559822; Device: IBM (Qiskit); simulated: false" role="graphics-symbol" aria-roledescription="line mark" d="M40,15.252L80,98.409L120,129.423L160,131.774L200,104.564" stroke-width="2" stroke-dasharray="1,0"/></g></g><path class="foreground" aria-hidden="true" d="" display="none"/></g></g><g class="mark-symbol role-mark child_layer_1_marks" role="graphics-object" aria-roledescription="symbol mark container"><path aria-label="Time: 0.2; Error Rate: 0.000493596784359; Device: IonQ (ideal); simulated: true" role="graphics-symbol" aria-roledescription="point" transform="translate(40,199.82051026023316)" d="M2.739,0A2.739,2.739,0,1,1,-2.739,0A2.739,2.739,0,1,1,2.739,0" fill="#fead6b" stroke-width="2" stroke-dasharray="4,2" opacity="1"/><path aria-label="Time: 0.4; Error Rate: 0.00633559449566; Device: IonQ (ideal); simulated: true" role="graphics-symbol" aria-roledescription="point" transform="translate(80,197.69614745612483)" d="M2.739,0A2.739,2.739,0,1,1,-2.739,0A2.739,2.739,0,1,1,2.739,0" fill="#fead6b" stroke-width="2" stroke-dasharray="4,2" opacity="1"/><path aria-label="Time: 0.6; Error Rate: 0.0253979011107; Device: IonQ (ideal); simulated: true" role="graphics-symbol" aria-roledescription="point" transform="translate(120,190.76439959612298)" d="M2.739,0A2.739,2.739,0,1,1,-2.739,0A2.739,2.739,0,1,1,2.739,0" fill="#fead6b" stroke-width="2" stroke-dasharray="4,2" opacity="1"/><path aria-label="Time: 0.8; Error Rate: 0.0690932178908; Device: IonQ (ideal); simulated: true" role="graphics-symbol" aria-roledescription="point" transform="translate(160,174.87519349425372)" d="M2.739,0A2.739,2.739,0,1,1,-2.739,0A2.739,2.739,0,1,1,2.739,0" fill="#fead6b" stroke-width="2" stroke-dasharray="4,2" opacity="1"/><path aria-label="Time: 1; Error Rate: 0.127045122054; Device: IonQ (ideal); simulated: true" role="graphics-symbol" aria-roledescription="point" transform="translate(200,153.8017737984813)" d="M2.739,0A2.739,2.739,0,1,1,-2.739,0A2.739,2.739,0,1,1,2.739,0" fill="#fead6b" stroke-width="2" stroke-dasharray="4,2" opacity="1"/><path aria-label="Time: 0.2; Error Rate: 0.0459606953459; Device: IonQ; simulated: false" role="graphics-symbol" aria-roledescription="point" transform="translate(40,183.28701987420408)" d="M2.739,0A2.739,2.739,0,1,1,-2.739,0A2.739,2.739,0,1,1,2.739,0" fill="#e6550d" stroke-width="2" stroke-dasharray="1,0" opacity="1"/><path aria-label="Time: 0.4; Error Rate: 0.0615016221355; Device: IonQ; simulated: false" role="graphics-symbol" aria-roledescription="point" transform="translate(80,177.63577376892462)" d="M2.739,0A2.739,2.739,0,1,1,-2.739,0A2.739,2.739,0,1,1,2.739,0" fill="#e6550d" stroke-width="2" stroke-dasharray="1,0" opacity="1"/><path aria-label="Time: 0.6; Error Rate: 0.0803675531959; Device: IonQ; simulated: false" role="graphics-symbol" aria-roledescription="point" transform="translate(120,170.7754352015058)" d="M2.739,0A2.739,2.739,0,1,1,-2.739,0A2.739,2.739,0,1,1,2.739,0" fill="#e6550d" stroke-width="2" stroke-dasharray="1,0" opacity="1"/><path aria-label="Time: 0.8; Error Rate: 0.109165748741; Device: IonQ; simulated: false" role="graphics-symbol" aria-roledescription="point" transform="translate(160,160.30336409412996)" d="M2.739,0A2.739,2.739,0,1,1,-2.739,0A2.739,2.739,0,1,1,2.739,0" fill="#e6550d" stroke-width="2" stroke-dasharray="1,0" opacity="1"/><path aria-label="Time: 1; Error Rate: 0.161683056464; Device: IonQ; simulated: false" role="graphics-symbol" aria-roledescription="point" transform="translate(200,141.20616128564222)" d="M2.739,0A2.739,2.739,0,1,1,-2.739,0A2.739,2.739,0,1,1,2.739,0" fill="#e6550d" stroke-width="2" stroke-dasharray="1,0" opacity="1"/><path aria-label="Time: 0.2; Error Rate: 0.109026728893; Device: IonQ (Qiskit); simulated: false" role="graphics-symbol" aria-roledescription="point" transform="translate(40,160.3539167660234)" d="M2.739,0A2.739,2.739,0,1,1,-2.739,0A2.739,2.739,0,1,1,2.739,0" stroke-width="2" stroke-dasharray="1,0" opacity="1"/><path aria-label="Time: 0.4; Error Rate: 0.0897930304576; Device: IonQ (Qiskit); simulated: false" role="graphics-symbol" aria-roledescription="point" transform="translate(80,167.34798892452)" d="M2.739,0A2.739,2.739,0,1,1,-2.739,0A2.739,2.739,0,1,1,2.739,0" stroke-width="2" stroke-dasharray="1,0" opacity="1"/><path aria-label="Time: 0.6; Error Rate: 0.125259881951; Device: IonQ (Qiskit); simulated: false" role="graphics-symbol" aria-roledescription="point" transform="translate(120,154.45095201778608)" d="M2.739,0A2.739,2.739,0,1,1,-2.739,0A2.739,2.739,0,1,1,2.739,0" stroke-width="2" stroke-dasharray="1,0" opacity="1"/><path aria-label="Time: 0.8; Error Rate: 0.0964393879726; Device: IonQ (Qiskit); simulated: false" role="graphics-symbol" aria-roledescription="point" transform="translate(160,164.9311316463237)" d="M2.739,0A2.739,2.739,0,1,1,-2.739,0A2.739,2.739,0,1,1,2.739,0" stroke-width="2" stroke-dasharray="1,0" opacity="1"/><path aria-label="Time: 1; Error Rate: 0.100788836524; Device: IonQ (Qiskit); simulated: false" role="graphics-symbol" aria-roledescription="point" transform="translate(200,163.34951399117443)" d="M2.739,0A2.739,2.739,0,1,1,-2.739,0A2.739,2.739,0,1,1,2.739,0" stroke-width="2" stroke-dasharray="1,0" opacity="1"/><path aria-label="Time: 0.2; Error Rate: 0.0101954456803; Device: IBM (ideal); simulated: true" role="graphics-symbol" aria-roledescription="point" transform="translate(40,196.29256520716075)" d="M2.739,0A2.739,2.739,0,1,1,-2.739,0A2.739,2.739,0,1,1,2.739,0" fill="#9ecae1" stroke-width="2" stroke-dasharray="4,2" opacity="1"/><path aria-label="Time: 0.4; Error Rate: 0.031308853184; Device: IBM (ideal); simulated: true" role="graphics-symbol" aria-roledescription="point" transform="translate(80,188.6149624785511)" d="M2.739,0A2.739,2.739,0,1,1,-2.739,0A2.739,2.739,0,1,1,2.739,0" fill="#9ecae1" stroke-width="2" stroke-dasharray="4,2" opacity="1"/><path aria-label="Time: 0.6; Error Rate: 0.056800869184; Device: IBM (ideal); simulated: true" role="graphics-symbol" aria-roledescription="point" transform="translate(120,179.3451384785587)" d="M2.739,0A2.739,2.739,0,1,1,-2.739,0A2.739,2.739,0,1,1,2.739,0" fill="#9ecae1" stroke-width="2" stroke-dasharray="4,2" opacity="1"/><path aria-label="Time: 0.8; Error Rate: 0.0827448316092; Device: IBM (ideal); simulated: true" role="graphics-symbol" aria-roledescription="point" transform="translate(160,169.91097032391198)" d="M2.739,0A2.739,2.739,0,1,1,-2.739,0A2.739,2.739,0,1,1,2.739,0" fill="#9ecae1" stroke-width="2" stroke-dasharray="4,2" opacity="1"/><path aria-label="Time: 1; Error Rate: 0.133034015666; Device: IBM (ideal); simulated: true" role="graphics-symbol" aria-roledescription="point" transform="translate(200,151.62399430315713)" d="M2.739,0A2.739,2.739,0,1,1,-2.739,0A2.739,2.739,0,1,1,2.739,0" fill="#9ecae1" stroke-width="2" stroke-dasharray="4,2" opacity="1"/><path aria-label="Time: 0.2; Error Rate: 0.247697498719; Device: IBM; simulated: false" role="graphics-symbol" aria-roledescription="point" transform="translate(40,109.92818228399794)" d="M2.739,0A2.739,2.739,0,1,1,-2.739,0A2.739,2.739,0,1,1,2.739,0" fill="#3182bd" stroke-width="2" stroke-dasharray="1,0" opacity="1"/><path aria-label="Time: 0.4; Error Rate: 0.184342852223; Device: IBM; simulated: false" role="graphics-symbol" aria-roledescription="point" transform="translate(80,132.9662355551525)" d="M2.739,0A2.739,2.739,0,1,1,-2.739,0A2.739,2.739,0,1,1,2.739,0" fill="#3182bd" stroke-width="2" stroke-dasharray="1,0" opacity="1"/><path aria-label="Time: 0.6; Error Rate: 0.155218900272; Device: IBM; simulated: false" role="graphics-symbol" aria-roledescription="point" transform="translate(120,143.5567635374238)" d="M2.739,0A2.739,2.739,0,1,1,-2.739,0A2.739,2.739,0,1,1,2.739,0" fill="#3182bd" stroke-width="2" stroke-dasharray="1,0" opacity="1"/><path aria-label="Time: 0.8; Error Rate: 0.195727041876; Device: IBM; simulated: false" role="graphics-symbol" aria-roledescription="point" transform="translate(160,128.82653022704233)" d="M2.739,0A2.739,2.739,0,1,1,-2.739,0A2.739,2.739,0,1,1,2.739,0" fill="#3182bd" stroke-width="2" stroke-dasharray="1,0" opacity="1"/><path aria-label="Time: 1; Error Rate: 0.28817688119; Device: IBM; simulated: false" role="graphics-symbol" aria-roledescription="point" transform="translate(200,95.20840683984358)" d="M2.739,0A2.739,2.739,0,1,1,-2.739,0A2.739,2.739,0,1,1,2.739,0" fill="#3182bd" stroke-width="2" stroke-dasharray="1,0" opacity="1"/><path aria-label="Time: 0.2; Error Rate: 0.5080559822; Device: IBM (Qiskit); simulated: false" role="graphics-symbol" aria-roledescription="point" transform="translate(40,15.252370109015501)" d="M2.739,0A2.739,2.739,0,1,1,-2.739,0A2.739,2.739,0,1,1,2.739,0" stroke-width="2" stroke-dasharray="1,0" opacity="1"/><path aria-label="Time: 0.4; Error Rate: 0.279375427436; Device: IBM (Qiskit); simulated: false" role="graphics-symbol" aria-roledescription="point" transform="translate(80,98.40893547789018)" d="M2.739,0A2.739,2.739,0,1,1,-2.739,0A2.739,2.739,0,1,1,2.739,0" stroke-width="2" stroke-dasharray="1,0" opacity="1"/><path aria-label="Time: 0.6; Error Rate: 0.194087536542; Device: IBM (Qiskit); simulated: false" role="graphics-symbol" aria-roledescription="point" transform="translate(120,129.42271398490064)" d="M2.739,0A2.739,2.739,0,1,1,-2.739,0A2.739,2.739,0,1,1,2.739,0" stroke-width="2" stroke-dasharray="1,0" opacity="1"/><path aria-label="Time: 0.8; Error Rate: 0.187620883463; Device: IBM (Qiskit); simulated: false" role="graphics-symbol" aria-roledescription="point" transform="translate(160,131.77422419509207)" d="M2.739,0A2.739,2.739,0,1,1,-2.739,0A2.739,2.739,0,1,1,2.739,0" stroke-width="2" stroke-dasharray="1,0" opacity="1"/><path aria-label="Time: 1; Error Rate: 0.26244835787; Device: IBM (Qiskit); simulated: false" role="graphics-symbol" aria-roledescription="point" transform="translate(200,104.56423350164665)" d="M2.739,0A2.739,2.739,0,1,1,-2.739,0A2.739,2.739,0,1,1,2.739,0" stroke-width="2" stroke-dasharray="1,0" opacity="1"/></g></g><path class="foreground" aria-hidden="true" d="" display="none"/></g><g transform="translate(225,0)"><path class="background" aria-hidden="true" d="M0.5,0.5h200v200h-200Z" stroke="#ddd"/><g><g class="mark-group role-axis" aria-hidden="true"><g transform="translate(0.5,200.5)"><path class="background" aria-hidden="true" d="M0,0h0v0h0Z" pointer-events="none"/><g><g class="mark-rule role-axis-grid" pointer-events="none"><line transform="translate(0,-200)" x2="0" y2="200" stroke="#ddd" stroke-width="1" opacity="1"/><line transform="translate(40,-200)" x2="0" y2="200" stroke="#ddd" stroke-width="1" opacity="1"/><line transform="translate(80,-200)" x2="0" y2="200" stroke="#ddd" stroke-width="1" opacity="1"/><line transform="translate(120,-200)" x2="0" y2="200" stroke="#ddd" stroke-width="1" opacity="1"/><line transform="translate(160,-200)" x2="0" y2="200" stroke="#ddd" stroke-width="1" opacity="1"/><line transform="translate(200,-200)" x2="0" y2="200" stroke="#ddd" stroke-width="1" opacity="1"/></g></g><path class="foreground" aria-hidden="true" d="" pointer-events="none" display="none"/></g></g><g class="mark-group role-axis" aria-hidden="true"><g transform="translate(0.5,0.5)"><path class="background" aria-hidden="true" d="M0,0h0v0h0Z" pointer-events="none"/><g><g class="mark-rule role-axis-grid" pointer-events="none"><line transform="translate(0,200)" x2="200" y2="0" stroke="#ddd" stroke-width="1" opacity="1"/><line transform="translate(0,164)" x2="200" y2="0" stroke="#ddd" stroke-width="1" opacity="1"/><line transform="translate(0,127)" x2="200" y2="0" stroke="#ddd" stroke-width="1" opacity="1"/><line transform="translate(0,91)" x2="200" y2="0" stroke="#ddd" stroke-width="1" opacity="1"/><line transform="translate(0,55)" x2="200" y2="0" stroke="#ddd" stroke-width="1" opacity="1"/><line transform="translate(0,18)" x2="200" y2="0" stroke="#ddd" stroke-width="1" opacity="1"/></g></g><path class="foreground" aria-hidden="true" d="" pointer-events="none" display="none"/></g></g><g class="mark-group role-scope child_layer_0_pathgroup" role="graphics-object" aria-roledescription="group mark container"><g transform="translate(0,0)"><path class="background" aria-hidden="true" d="M0,0h200v200h-200Z"/><g><g class="mark-line role-mark child_layer_0_marks" role="graphics-object" aria-roledescription="line mark container"><path aria-label="Time: 0.2; Error Rate: 0.0212109282377; Device: QuEra (ideal); simulated: true" role="graphics-symbol" aria-roledescription="line mark" d="M40,192.287L80,180.414L120,174.206L160,173.166L200,172.197" stroke="#a1d99b" stroke-width="2" stroke-dasharray="4,2"/></g></g><path class="foreground" aria-hidden="true" d="" display="none"/></g><g transform="translate(0,0)"><path class="background" aria-hidden="true" d="M0,0h200v200h-200Z"/><g><g class="mark-line role-mark child_layer_0_marks" role="graphics-object" aria-roledescription="line mark container"><path aria-label="Time: 0.2; Error Rate: 0.0927341048075; Device: QuEra; simulated: false" role="graphics-symbol" aria-roledescription="line mark" d="M40,166.279L80,143.863L120,99.611L160,45.26L200,20.767" stroke="#31a354" stroke-width="2" stroke-dasharray="1,0"/></g></g><path class="foreground" aria-hidden="true" d="" display="none"/></g><g transform="translate(0,0)"><path class="background" aria-hidden="true" d="M0,0h200v200h-200Z"/><g><g class="mark-line role-mark child_layer_0_marks" role="graphics-object" aria-roledescription="line mark container"><path aria-label="Time: 0.2; Error Rate: 0.000633994121487; Device: IonQ (ideal); simulated: true" role="graphics-symbol" aria-roledescription="line mark" d="M40,199.769L80,198.024L120,195.224L160,192.27L200,188.823" stroke="#fead6b" stroke-width="2" stroke-dasharray="4,2"/></g></g><path class="foreground" aria-hidden="true" d="" display="none"/></g><g transform="translate(0,0)"><path class="background" aria-hidden="true" d="M0,0h200v200h-200Z"/><g><g class="mark-line role-mark child_layer_0_marks" role="graphics-object" aria-roledescription="line mark container"><path aria-label="Time: 0.2; Error Rate: 0.0566020050487; Device: IonQ; simulated: false" role="graphics-symbol" aria-roledescription="line mark" d="M40,179.417L80,177.253L120,170.48L160,165.486L200,162.671" stroke="#e6550d" stroke-width="2" stroke-dasharray="1,0"/></g></g><path class="foreground" aria-hidden="true" d="" display="none"/></g><g transform="translate(0,0)"><path class="background" aria-hidden="true" d="M0,0h200v200h-200Z"/><g><g class="mark-line role-mark child_layer_0_marks" role="graphics-object" aria-roledescription="line mark container"><path aria-label="Time: 0.2; Error Rate: 0.111635726645; Device: IonQ (Qiskit); simulated: false" role="graphics-symbol" aria-roledescription="line mark" d="M40,159.405L80,167.706L120,171.085L160,162.441L200,159.299" stroke-width="2" stroke-dasharray="1,0"/></g></g><path class="foreground" aria-hidden="true" d="" display="none"/></g></g><g class="mark-symbol role-mark child_layer_1_marks" role="graphics-object" aria-roledescription="symbol mark container"><path aria-label="Time: 0.2; Error Rate: 0.0212109282377; Device: QuEra (ideal); simulated: true" role="graphics-symbol" aria-roledescription="point" transform="translate(40,192.28693518628072)" d="M2.739,0A2.739,2.739,0,1,1,-2.739,0A2.739,2.739,0,1,1,2.739,0" fill="#a1d99b" stroke-width="2" stroke-dasharray="4,2" opacity="1"/><path aria-label="Time: 0.4; Error Rate: 0.0538620805092; Device: QuEra (ideal); simulated: true" role="graphics-symbol" aria-roledescription="point" transform="translate(80,180.4137889057351)" d="M2.739,0A2.739,2.739,0,1,1,-2.739,0A2.739,2.739,0,1,1,2.739,0" fill="#a1d99b" stroke-width="2" stroke-dasharray="4,2" opacity="1"/><path aria-label="Time: 0.6; Error Rate: 0.0709345602047; Device: QuEra (ideal); simulated: true" role="graphics-symbol" aria-roledescription="point" transform="translate(120,174.2056144710007)" d="M2.739,0A2.739,2.739,0,1,1,-2.739,0A2.739,2.739,0,1,1,2.739,0" fill="#a1d99b" stroke-width="2" stroke-dasharray="4,2" opacity="1"/><path aria-label="Time: 0.8; Error Rate: 0.073792716989; Device: QuEra (ideal); simulated: true" role="graphics-symbol" aria-roledescription="point" transform="translate(160,173.1662847312605)" d="M2.739,0A2.739,2.739,0,1,1,-2.739,0A2.739,2.739,0,1,1,2.739,0" fill="#a1d99b" stroke-width="2" stroke-dasharray="4,2" opacity="1"/><path aria-label="Time: 1; Error Rate: 0.0764581749444; Device: QuEra (ideal); simulated: true" role="graphics-symbol" aria-roledescription="point" transform="translate(200,172.19702729295707)" d="M2.739,0A2.739,2.739,0,1,1,-2.739,0A2.739,2.739,0,1,1,2.739,0" fill="#a1d99b" stroke-width="2" stroke-dasharray="4,2" opacity="1"/><path aria-label="Time: 0.2; Error Rate: 0.0927341048075; Device: QuEra; simulated: false" role="graphics-symbol" aria-roledescription="point" transform="translate(40,166.27850734273613)" d="M2.739,0A2.739,2.739,0,1,1,-2.739,0A2.739,2.739,0,1,1,2.739,0" fill="#31a354" stroke-width="2" stroke-dasharray="1,0" opacity="1"/><path aria-label="Time: 0.4; Error Rate: 0.154377770537; Device: QuEra; simulated: false" role="graphics-symbol" aria-roledescription="point" transform="translate(80,143.86262889563034)" d="M2.739,0A2.739,2.739,0,1,1,-2.739,0A2.739,2.739,0,1,1,2.739,0" fill="#31a354" stroke-width="2" stroke-dasharray="1,0" opacity="1"/><path aria-label="Time: 0.6; Error Rate: 0.276069035566; Device: QuEra; simulated: false" role="graphics-symbol" aria-roledescription="point" transform="translate(120,99.6112597943184)" d="M2.739,0A2.739,2.739,0,1,1,-2.739,0A2.739,2.739,0,1,1,2.739,0" fill="#31a354" stroke-width="2" stroke-dasharray="1,0" opacity="1"/><path aria-label="Time: 0.8; Error Rate: 0.425535161845; Device: QuEra; simulated: false" role="graphics-symbol" aria-roledescription="point" transform="translate(160,45.25994114730476)" d="M2.739,0A2.739,2.739,0,1,1,-2.739,0A2.739,2.739,0,1,1,2.739,0" fill="#31a354" stroke-width="2" stroke-dasharray="1,0" opacity="1"/><path aria-label="Time: 1; Error Rate: 0.492891013668; Device: QuEra; simulated: false" role="graphics-symbol" aria-roledescription="point" transform="translate(200,20.766904120879694)" d="M2.739,0A2.739,2.739,0,1,1,-2.739,0A2.739,2.739,0,1,1,2.739,0" fill="#31a354" stroke-width="2" stroke-dasharray="1,0" opacity="1"/><path aria-label="Time: 0.2; Error Rate: 0.000633994121487; Device: IonQ (ideal); simulated: true" role="graphics-symbol" aria-roledescription="point" transform="translate(40,199.76945668309568)" d="M2.739,0A2.739,2.739,0,1,1,-2.739,0A2.739,2.739,0,1,1,2.739,0" fill="#fead6b" stroke-width="2" stroke-dasharray="4,2" opacity="1"/><path aria-label="Time: 0.4; Error Rate: 0.00543335709636; Device: IonQ (ideal); simulated: true" role="graphics-symbol" aria-roledescription="point" transform="translate(80,198.02423378314236)" d="M2.739,0A2.739,2.739,0,1,1,-2.739,0A2.739,2.739,0,1,1,2.739,0" fill="#fead6b" stroke-width="2" stroke-dasharray="4,2" opacity="1"/><path aria-label="Time: 0.6; Error Rate: 0.0131338441663; Device: IonQ (ideal); simulated: true" role="graphics-symbol" aria-roledescription="point" transform="translate(120,195.22405666681536)" d="M2.739,0A2.739,2.739,0,1,1,-2.739,0A2.739,2.739,0,1,1,2.739,0" fill="#fead6b" stroke-width="2" stroke-dasharray="4,2" opacity="1"/><path aria-label="Time: 0.8; Error Rate: 0.0212578813347; Device: IonQ (ideal); simulated: true" role="graphics-symbol" aria-roledescription="point" transform="translate(160,192.26986133283228)" d="M2.739,0A2.739,2.739,0,1,1,-2.739,0A2.739,2.739,0,1,1,2.739,0" fill="#fead6b" stroke-width="2" stroke-dasharray="4,2" opacity="1"/><path aria-label="Time: 1; Error Rate: 0.0307362024213; Device: IonQ (ideal); simulated: true" role="graphics-symbol" aria-roledescription="point" transform="translate(200,188.82319911951967)" d="M2.739,0A2.739,2.739,0,1,1,-2.739,0A2.739,2.739,0,1,1,2.739,0" fill="#fead6b" stroke-width="2" stroke-dasharray="4,2" opacity="1"/><path aria-label="Time: 0.2; Error Rate: 0.0566020050487; Device: IonQ; simulated: false" role="graphics-symbol" aria-roledescription="point" transform="translate(40,179.41745270957256)" d="M2.739,0A2.739,2.739,0,1,1,-2.739,0A2.739,2.739,0,1,1,2.739,0" fill="#e6550d" stroke-width="2" stroke-dasharray="1,0" opacity="1"/><path aria-label="Time: 0.4; Error Rate: 0.0625530087486; Device: IonQ; simulated: false" role="graphics-symbol" aria-roledescription="point" transform="translate(80,177.25345136412813)" d="M2.739,0A2.739,2.739,0,1,1,-2.739,0A2.739,2.739,0,1,1,2.739,0" fill="#e6550d" stroke-width="2" stroke-dasharray="1,0" opacity="1"/><path aria-label="Time: 0.6; Error Rate: 0.0811806511133; Device: IonQ; simulated: false" role="graphics-symbol" aria-roledescription="point" transform="translate(120,170.4797632315259)" d="M2.739,0A2.739,2.739,0,1,1,-2.739,0A2.739,2.739,0,1,1,2.739,0" fill="#e6550d" stroke-width="2" stroke-dasharray="1,0" opacity="1"/><path aria-label="Time: 0.8; Error Rate: 0.0949135697976; Device: IonQ; simulated: false" role="graphics-symbol" aria-roledescription="point" transform="translate(160,165.48597461906246)" d="M2.739,0A2.739,2.739,0,1,1,-2.739,0A2.739,2.739,0,1,1,2.739,0" fill="#e6550d" stroke-width="2" stroke-dasharray="1,0" opacity="1"/><path aria-label="Time: 1; Error Rate: 0.102656018925; Device: IonQ; simulated: false" role="graphics-symbol" aria-roledescription="point" transform="translate(200,162.67053857281059)" d="M2.739,0A2.739,2.739,0,1,1,-2.739,0A2.739,2.739,0,1,1,2.739,0" fill="#e6550d" stroke-width="2" stroke-dasharray="1,0" opacity="1"/><path aria-label="Time: 0.2; Error Rate: 0.111635726645; Device: IonQ (Qiskit); simulated: false" role="graphics-symbol" aria-roledescription="point" transform="translate(40,159.40519031092688)" d="M2.739,0A2.739,2.739,0,1,1,-2.739,0A2.739,2.739,0,1,1,2.739,0" stroke-width="2" stroke-dasharray="1,0" opacity="1"/><path aria-label="Time: 0.4; Error Rate: 0.0888079416446; Device: IonQ (Qiskit); simulated: false" role="graphics-symbol" aria-roledescription="point" transform="translate(80,167.7062030383252)" d="M2.739,0A2.739,2.739,0,1,1,-2.739,0A2.739,2.739,0,1,1,2.739,0" stroke-width="2" stroke-dasharray="1,0" opacity="1"/><path aria-label="Time: 0.6; Error Rate: 0.0795168555663; Device: IonQ (Qiskit); simulated: false" role="graphics-symbol" aria-roledescription="point" transform="translate(120,171.0847797940582)" d="M2.739,0A2.739,2.739,0,1,1,-2.739,0A2.739,2.739,0,1,1,2.739,0" stroke-width="2" stroke-dasharray="1,0" opacity="1"/><path aria-label="Time: 0.8; Error Rate: 0.103287356528; Device: IonQ (Qiskit); simulated: false" role="graphics-symbol" aria-roledescription="point" transform="translate(160,162.44096126258864)" d="M2.739,0A2.739,2.739,0,1,1,-2.739,0A2.739,2.739,0,1,1,2.739,0" stroke-width="2" stroke-dasharray="1,0" opacity="1"/><path aria-label="Time: 1; Error Rate: 0.111927753229; Device: IonQ (Qiskit); simulated: false" role="graphics-symbol" aria-roledescription="point" transform="translate(200,159.29899882587372)" d="M2.739,0A2.739,2.739,0,1,1,-2.739,0A2.739,2.739,0,1,1,2.739,0" stroke-width="2" stroke-dasharray="1,0" opacity="1"/></g></g><path class="foreground" aria-hidden="true" d="" display="none"/></g></g><g class="mark-group role-legend" role="graphics-symbol" aria-roledescription="legend" aria-label="Symbol legend titled 'Device' for fill color and stroke color with 6 values: IonQ, IonQ (ideal), IBM, IBM (ideal), QuEra, QuEra (ideal)"><g transform="translate(447,0)"><path class="background" aria-hidden="true" d="M0,0h78v109h-78Z" pointer-events="none"/><g><g class="mark-group role-legend-entry"><g transform="translate(0,16)"><path class="background" aria-hidden="true" d="M0,0h0v0h0Z" pointer-events="none"/><g><g class="mark-group role-scope" role="graphics-object" aria-roledescription="group mark container"><g transform="translate(0,0)"><path class="background" aria-hidden="true" d="M0,0h77.7138671875v12.5h-77.7138671875Z" pointer-events="none" opacity="1"/><g><g class="mark-symbol role-legend-symbol" pointer-events="none"><path transform="translate(6,6)" d="M5,0A5,5,0,1,1,-5,0A5,5,0,1,1,5,0" fill="#e6550d" stroke="#e6550d" stroke-width="1.5" opacity="1"/></g><g class="mark-text role-legend-label" pointer-events="none"><text text-anchor="start" transform="translate(16,9)" font-family="sans-serif" font-size="10px" fill="#000" opacity="1">IonQ</text></g></g><path class="foreground" aria-hidden="true" d="" pointer-events="none" display="none"/></g><g transform="translate(0,16)"><path class="background" aria-hidden="true" d="M0,0h77.7138671875v12.5h-77.7138671875Z" pointer-events="none" opacity="1"/><g><g class="mark-symbol role-legend-symbol" pointer-events="none"><path transform="translate(6,6)" d="M5,0A5,5,0,1,1,-5,0A5,5,0,1,1,5,0" fill="#fead6b" stroke="#fead6b" stroke-width="1.5" opacity="1"/></g><g class="mark-text role-legend-label" pointer-events="none"><text text-anchor="start" transform="translate(16,9)" font-family="sans-serif" font-size="10px" fill="#000" opacity="1">IonQ (ideal)</text></g></g><path class="foreground" aria-hidden="true" d="" pointer-events="none" display="none"/></g><g transform="translate(0,32)"><path class="background" aria-hidden="true" d="M0,0h77.7138671875v12.5h-77.7138671875Z" pointer-events="none" opacity="1"/><g><g class="mark-symbol role-legend-symbol" pointer-events="none"><path transform="translate(6,6)" d="M5,0A5,5,0,1,1,-5,0A5,5,0,1,1,5,0" fill="#3182bd" stroke="#3182bd" stroke-width="1.5" opacity="1"/></g><g class="mark-text role-legend-label" pointer-events="none"><text text-anchor="start" transform="translate(16,9)" font-family="sans-serif" font-size="10px" fill="#000" opacity="1">IBM</text></g></g><path class="foreground" aria-hidden="true" d="" pointer-events="none" display="none"/></g><g transform="translate(0,48)"><path class="background" aria-hidden="true" d="M0,0h77.7138671875v12.5h-77.7138671875Z" pointer-events="none" opacity="1"/><g><g class="mark-symbol role-legend-symbol" pointer-events="none"><path transform="translate(6,6)" d="M5,0A5,5,0,1,1,-5,0A5,5,0,1,1,5,0" fill="#9ecae1" stroke="#9ecae1" stroke-width="1.5" opacity="1"/></g><g class="mark-text role-legend-label" pointer-events="none"><text text-anchor="start" transform="translate(16,9)" font-family="sans-serif" font-size="10px" fill="#000" opacity="1">IBM (ideal)</text></g></g><path class="foreground" aria-hidden="true" d="" pointer-events="none" display="none"/></g><g transform="translate(0,64)"><path class="background" aria-hidden="true" d="M0,0h77.7138671875v12.5h-77.7138671875Z" pointer-events="none" opacity="1"/><g><g class="mark-symbol role-legend-symbol" pointer-events="none"><path transform="translate(6,6)" d="M5,0A5,5,0,1,1,-5,0A5,5,0,1,1,5,0" fill="#31a354" stroke="#31a354" stroke-width="1.5" opacity="1"/></g><g class="mark-text role-legend-label" pointer-events="none"><text text-anchor="start" transform="translate(16,9)" font-family="sans-serif" font-size="10px" fill="#000" opacity="1">QuEra</text></g></g><path class="foreground" aria-hidden="true" d="" pointer-events="none" display="none"/></g><g transform="translate(0,80)"><path class="background" aria-hidden="true" d="M0,0h77.7138671875v12.5h-77.7138671875Z" pointer-events="none" opacity="1"/><g><g class="mark-symbol role-legend-symbol" pointer-events="none"><path transform="translate(6,6)" d="M5,0A5,5,0,1,1,-5,0A5,5,0,1,1,5,0" fill="#a1d99b" stroke="#a1d99b" stroke-width="1.5" opacity="1"/></g><g class="mark-text role-legend-label" pointer-events="none"><text text-anchor="start" transform="translate(16,9)" font-family="sans-serif" font-size="10px" fill="#000" opacity="1">QuEra (ideal)</text></g></g><path class="foreground" aria-hidden="true" d="" pointer-events="none" display="none"/></g></g></g><path class="foreground" aria-hidden="true" d="" pointer-events="none" display="none"/></g></g><g class="mark-text role-legend-title" pointer-events="none"><text text-anchor="start" transform="translate(0,9)" font-family="sans-serif" font-size="11px" font-weight="bold" fill="#000" opacity="1">Device</text></g></g><path class="foreground" aria-hidden="true" d="" pointer-events="none" display="none"/></g></g></g><path class="foreground" aria-hidden="true" d="" display="none"/></g></g></g></svg>